<mxfile host="app.diagrams.net" modified="2021-01-30T10:44:38.564Z" agent="5.0 (Macintosh; Intel Mac OS X 10_14_4) AppleWebKit/537.36 (KHTML, like Gecko) Chrome/88.0.4324.96 Safari/537.36" etag="ujcF69IaLOdCuj9Wg0g2" version="14.2.6" type="github">
  <diagram id="ieSqSzunVY4W9iV9r2Vb" name="Page-1">
    <mxGraphModel dx="786" dy="402" grid="1" gridSize="10" guides="1" tooltips="1" connect="1" arrows="1" fold="1" page="1" pageScale="1" pageWidth="827" pageHeight="1169" math="0" shadow="0">
      <root>
        <mxCell id="0" />
        <mxCell id="1" parent="0" />
        <mxCell id="MpI8tLXUSHNam6HZPBsy-1" value="edge-agent" style="shape=umlLifeline;perimeter=lifelinePerimeter;whiteSpace=wrap;html=1;container=1;collapsible=0;recursiveResize=0;outlineConnect=0;fillColor=#66FF66;" vertex="1" parent="1">
          <mxGeometry x="10" y="30" width="100" height="380" as="geometry" />
        </mxCell>
        <mxCell id="MpI8tLXUSHNam6HZPBsy-2" value="vm-controller" style="shape=umlLifeline;perimeter=lifelinePerimeter;whiteSpace=wrap;html=1;container=1;collapsible=0;recursiveResize=0;outlineConnect=0;fillColor=#33FF33;" vertex="1" parent="1">
          <mxGeometry x="140" y="30" width="100" height="380" as="geometry" />
        </mxCell>
        <mxCell id="MpI8tLXUSHNam6HZPBsy-3" value="" style="html=1;points=[];perimeter=orthogonalPerimeter;" vertex="1" parent="MpI8tLXUSHNam6HZPBsy-2">
          <mxGeometry x="45" y="70" width="10" height="140" as="geometry" />
        </mxCell>
        <mxCell id="MpI8tLXUSHNam6HZPBsy-4" value="dv-controller" style="shape=umlLifeline;perimeter=lifelinePerimeter;whiteSpace=wrap;html=1;container=1;collapsible=0;recursiveResize=0;outlineConnect=0;fillColor=#FFB366;" vertex="1" parent="1">
          <mxGeometry x="260" y="30" width="100" height="380" as="geometry" />
        </mxCell>
        <mxCell id="MpI8tLXUSHNam6HZPBsy-5" value="" style="html=1;points=[];perimeter=orthogonalPerimeter;" vertex="1" parent="MpI8tLXUSHNam6HZPBsy-4">
          <mxGeometry x="45" y="70" width="10" height="110" as="geometry" />
        </mxCell>
        <mxCell id="MpI8tLXUSHNam6HZPBsy-6" value="" style="endArrow=classic;html=1;edgeStyle=orthogonalEdgeStyle;" edge="1" parent="MpI8tLXUSHNam6HZPBsy-4" source="MpI8tLXUSHNam6HZPBsy-5">
          <mxGeometry width="50" height="50" relative="1" as="geometry">
            <mxPoint x="50" y="160" as="sourcePoint" />
            <mxPoint x="56" y="160" as="targetPoint" />
            <Array as="points">
              <mxPoint x="90" y="115" />
              <mxPoint x="90" y="160" />
            </Array>
          </mxGeometry>
        </mxCell>
        <mxCell id="MpI8tLXUSHNam6HZPBsy-7" value="importer-pod" style="shape=umlLifeline;perimeter=lifelinePerimeter;whiteSpace=wrap;html=1;container=1;collapsible=0;recursiveResize=0;outlineConnect=0;fillColor=#FFB366;" vertex="1" parent="1">
          <mxGeometry x="390" y="30" width="100" height="380" as="geometry" />
        </mxCell>
        <mxCell id="MpI8tLXUSHNam6HZPBsy-8" value="" style="html=1;points=[];perimeter=orthogonalPerimeter;" vertex="1" parent="MpI8tLXUSHNam6HZPBsy-7">
          <mxGeometry x="45" y="80" width="10" height="60" as="geometry" />
        </mxCell>
        <mxCell id="MpI8tLXUSHNam6HZPBsy-9" value="image-cache" style="shape=umlLifeline;perimeter=lifelinePerimeter;whiteSpace=wrap;html=1;container=1;collapsible=0;recursiveResize=0;outlineConnect=0;fillColor=#FFB366;" vertex="1" parent="1">
          <mxGeometry x="520" y="30" width="100" height="380" as="geometry" />
        </mxCell>
        <mxCell id="MpI8tLXUSHNam6HZPBsy-10" value="" style="html=1;points=[];perimeter=orthogonalPerimeter;" vertex="1" parent="MpI8tLXUSHNam6HZPBsy-9">
          <mxGeometry x="45" y="90" width="10" height="40" as="geometry" />
        </mxCell>
        <mxCell id="MpI8tLXUSHNam6HZPBsy-11" value="" style="html=1;points=[];perimeter=orthogonalPerimeter;" vertex="1" parent="MpI8tLXUSHNam6HZPBsy-9">
          <mxGeometry x="45" y="330" width="10" height="40" as="geometry" />
        </mxCell>
        <mxCell id="MpI8tLXUSHNam6HZPBsy-12" value="cloud-glance" style="shape=umlLifeline;perimeter=lifelinePerimeter;whiteSpace=wrap;html=1;container=1;collapsible=0;recursiveResize=0;outlineConnect=0;fillColor=#33FF33;" vertex="1" parent="1">
          <mxGeometry x="650" y="30" width="100" height="380" as="geometry" />
        </mxCell>
        <mxCell id="MpI8tLXUSHNam6HZPBsy-13" value="create vm" style="html=1;verticalAlign=bottom;endArrow=block;" edge="1" parent="1" source="MpI8tLXUSHNam6HZPBsy-1" target="MpI8tLXUSHNam6HZPBsy-2">
          <mxGeometry width="80" relative="1" as="geometry">
            <mxPoint x="60" y="100" as="sourcePoint" />
            <mxPoint x="140" y="100" as="targetPoint" />
            <Array as="points">
              <mxPoint x="140" y="100" />
            </Array>
          </mxGeometry>
        </mxCell>
        <mxCell id="MpI8tLXUSHNam6HZPBsy-14" value="create datavolume" style="html=1;verticalAlign=bottom;endArrow=block;exitX=1;exitY=0.029;exitDx=0;exitDy=0;exitPerimeter=0;" edge="1" parent="1" source="MpI8tLXUSHNam6HZPBsy-3" target="MpI8tLXUSHNam6HZPBsy-4">
          <mxGeometry width="80" relative="1" as="geometry">
            <mxPoint x="210" y="120" as="sourcePoint" />
            <mxPoint x="290" y="104" as="targetPoint" />
            <Array as="points" />
          </mxGeometry>
        </mxCell>
        <mxCell id="MpI8tLXUSHNam6HZPBsy-15" value="" style="html=1;verticalAlign=bottom;endArrow=block;exitX=1.1;exitY=0.156;exitDx=0;exitDy=0;exitPerimeter=0;" edge="1" parent="1" source="MpI8tLXUSHNam6HZPBsy-5" target="MpI8tLXUSHNam6HZPBsy-7">
          <mxGeometry x="0.2048" y="22" width="80" relative="1" as="geometry">
            <mxPoint x="310" y="140" as="sourcePoint" />
            <mxPoint x="427" y="140" as="targetPoint" />
            <Array as="points" />
            <mxPoint as="offset" />
          </mxGeometry>
        </mxCell>
        <mxCell id="MpI8tLXUSHNam6HZPBsy-16" value="pull image" style="html=1;verticalAlign=bottom;endArrow=block;entryX=0;entryY=0.071;entryDx=0;entryDy=0;entryPerimeter=0;" edge="1" parent="1" target="MpI8tLXUSHNam6HZPBsy-10">
          <mxGeometry relative="1" as="geometry">
            <mxPoint x="445" y="123" as="sourcePoint" />
          </mxGeometry>
        </mxCell>
        <mxCell id="MpI8tLXUSHNam6HZPBsy-17" value="pull success" style="html=1;verticalAlign=bottom;endArrow=open;dashed=1;endSize=8;exitX=0.1;exitY=0.925;exitDx=0;exitDy=0;exitPerimeter=0;entryX=0.9;entryY=0.817;entryDx=0;entryDy=0;entryPerimeter=0;" edge="1" parent="1" source="MpI8tLXUSHNam6HZPBsy-10" target="MpI8tLXUSHNam6HZPBsy-8">
          <mxGeometry relative="1" as="geometry">
            <mxPoint x="560" y="170" as="sourcePoint" />
            <mxPoint x="450" y="168" as="targetPoint" />
            <Array as="points" />
          </mxGeometry>
        </mxCell>
        <mxCell id="MpI8tLXUSHNam6HZPBsy-18" value="pull image" style="html=1;verticalAlign=bottom;endArrow=block;exitX=1.1;exitY=0.214;exitDx=0;exitDy=0;exitPerimeter=0;" edge="1" parent="1" source="MpI8tLXUSHNam6HZPBsy-10" target="MpI8tLXUSHNam6HZPBsy-12">
          <mxGeometry relative="1" as="geometry">
            <mxPoint x="574" y="130" as="sourcePoint" />
            <mxPoint x="690" y="130.00000000000003" as="targetPoint" />
          </mxGeometry>
        </mxCell>
        <mxCell id="MpI8tLXUSHNam6HZPBsy-19" value="没有缓存，回源" style="text;html=1;align=center;verticalAlign=middle;resizable=0;points=[];autosize=1;" vertex="1" parent="1">
          <mxGeometry x="590" y="90" width="100" height="20" as="geometry" />
        </mxCell>
        <mxCell id="MpI8tLXUSHNam6HZPBsy-20" value="success" style="html=1;verticalAlign=bottom;endArrow=open;dashed=1;endSize=8;" edge="1" parent="1" source="MpI8tLXUSHNam6HZPBsy-12">
          <mxGeometry relative="1" as="geometry">
            <mxPoint x="690" y="130" as="sourcePoint" />
            <mxPoint x="576" y="149" as="targetPoint" />
          </mxGeometry>
        </mxCell>
        <mxCell id="MpI8tLXUSHNam6HZPBsy-21" value="create importer pod&amp;nbsp;" style="text;html=1;align=center;verticalAlign=middle;resizable=0;points=[];autosize=1;" vertex="1" parent="1">
          <mxGeometry x="320" y="90" width="120" height="20" as="geometry" />
        </mxCell>
        <mxCell id="MpI8tLXUSHNam6HZPBsy-22" value="update dv&lt;br&gt;&amp;nbsp;status" style="text;html=1;align=center;verticalAlign=middle;resizable=0;points=[];autosize=1;" vertex="1" parent="1">
          <mxGeometry x="350" y="155" width="70" height="30" as="geometry" />
        </mxCell>
        <mxCell id="MpI8tLXUSHNam6HZPBsy-23" value="create dv success" style="html=1;verticalAlign=bottom;endArrow=open;dashed=1;endSize=8;exitX=0.5;exitY=1;exitDx=0;exitDy=0;exitPerimeter=0;" edge="1" parent="1">
          <mxGeometry relative="1" as="geometry">
            <mxPoint x="310.5" y="210" as="sourcePoint" />
            <mxPoint x="190" y="210" as="targetPoint" />
          </mxGeometry>
        </mxCell>
        <mxCell id="MpI8tLXUSHNam6HZPBsy-24" value="create vm success" style="html=1;verticalAlign=bottom;endArrow=open;dashed=1;endSize=8;exitX=0.5;exitY=1;exitDx=0;exitDy=0;exitPerimeter=0;" edge="1" parent="1">
          <mxGeometry relative="1" as="geometry">
            <mxPoint x="180.5" y="240" as="sourcePoint" />
            <mxPoint x="60" y="240" as="targetPoint" />
          </mxGeometry>
        </mxCell>
        <mxCell id="MpI8tLXUSHNam6HZPBsy-25" value="" style="html=1;points=[];perimeter=orthogonalPerimeter;" vertex="1" parent="1">
          <mxGeometry x="185.5" y="270" width="10" height="90" as="geometry" />
        </mxCell>
        <mxCell id="MpI8tLXUSHNam6HZPBsy-26" value="" style="html=1;points=[];perimeter=orthogonalPerimeter;" vertex="1" parent="1">
          <mxGeometry x="305.5" y="270" width="10" height="70" as="geometry" />
        </mxCell>
        <mxCell id="MpI8tLXUSHNam6HZPBsy-27" value="" style="endArrow=classic;html=1;edgeStyle=orthogonalEdgeStyle;" edge="1" parent="1" source="MpI8tLXUSHNam6HZPBsy-26" target="MpI8tLXUSHNam6HZPBsy-26">
          <mxGeometry width="50" height="50" relative="1" as="geometry">
            <mxPoint x="50.5" y="330" as="sourcePoint" />
            <mxPoint x="316.5" y="360" as="targetPoint" />
            <Array as="points">
              <mxPoint x="351" y="310" />
              <mxPoint x="351" y="330" />
            </Array>
          </mxGeometry>
        </mxCell>
        <mxCell id="MpI8tLXUSHNam6HZPBsy-28" value="" style="html=1;points=[];perimeter=orthogonalPerimeter;" vertex="1" parent="1">
          <mxGeometry x="435.5" y="280" width="10" height="40" as="geometry" />
        </mxCell>
        <mxCell id="MpI8tLXUSHNam6HZPBsy-29" value="" style="html=1;points=[];perimeter=orthogonalPerimeter;" vertex="1" parent="1">
          <mxGeometry x="565.5" y="290" width="10" height="20" as="geometry" />
        </mxCell>
        <mxCell id="MpI8tLXUSHNam6HZPBsy-30" value="scale vm" style="html=1;verticalAlign=bottom;endArrow=block;" edge="1" parent="1">
          <mxGeometry width="80" relative="1" as="geometry">
            <mxPoint x="60" y="270" as="sourcePoint" />
            <mxPoint x="190" y="270" as="targetPoint" />
            <Array as="points">
              <mxPoint x="140.5" y="270" />
            </Array>
          </mxGeometry>
        </mxCell>
        <mxCell id="MpI8tLXUSHNam6HZPBsy-31" value="create datavolume" style="html=1;verticalAlign=bottom;endArrow=block;exitX=1;exitY=0.029;exitDx=0;exitDy=0;exitPerimeter=0;" edge="1" parent="1" source="MpI8tLXUSHNam6HZPBsy-25">
          <mxGeometry width="80" relative="1" as="geometry">
            <mxPoint x="210.5" y="290" as="sourcePoint" />
            <mxPoint x="310" y="274.05999999999995" as="targetPoint" />
            <Array as="points" />
          </mxGeometry>
        </mxCell>
        <mxCell id="MpI8tLXUSHNam6HZPBsy-32" value="" style="html=1;verticalAlign=bottom;endArrow=block;" edge="1" parent="1">
          <mxGeometry x="0.2048" y="22" width="80" relative="1" as="geometry">
            <mxPoint x="317" y="287" as="sourcePoint" />
            <mxPoint x="440" y="287.15999999999997" as="targetPoint" />
            <Array as="points" />
            <mxPoint as="offset" />
          </mxGeometry>
        </mxCell>
        <mxCell id="MpI8tLXUSHNam6HZPBsy-33" value="pull image" style="html=1;verticalAlign=bottom;endArrow=block;entryX=0;entryY=0.071;entryDx=0;entryDy=0;entryPerimeter=0;" edge="1" parent="1" target="MpI8tLXUSHNam6HZPBsy-29">
          <mxGeometry relative="1" as="geometry">
            <mxPoint x="446" y="291" as="sourcePoint" />
          </mxGeometry>
        </mxCell>
        <mxCell id="MpI8tLXUSHNam6HZPBsy-34" value="pull success" style="html=1;verticalAlign=bottom;endArrow=open;dashed=1;endSize=8;exitX=0.1;exitY=0.925;exitDx=0;exitDy=0;exitPerimeter=0;" edge="1" parent="1" source="MpI8tLXUSHNam6HZPBsy-29">
          <mxGeometry relative="1" as="geometry">
            <mxPoint x="560.5" y="340" as="sourcePoint" />
            <mxPoint x="447" y="311" as="targetPoint" />
            <Array as="points" />
          </mxGeometry>
        </mxCell>
        <mxCell id="MpI8tLXUSHNam6HZPBsy-35" value="create importer pod&amp;nbsp;" style="text;html=1;align=center;verticalAlign=middle;resizable=0;points=[];autosize=1;" vertex="1" parent="1">
          <mxGeometry x="320.5" y="260" width="120" height="20" as="geometry" />
        </mxCell>
        <mxCell id="MpI8tLXUSHNam6HZPBsy-36" value="update dv&lt;br&gt;&amp;nbsp;status" style="text;html=1;align=center;verticalAlign=middle;resizable=0;points=[];autosize=1;" vertex="1" parent="1">
          <mxGeometry x="350" y="310" width="70" height="30" as="geometry" />
        </mxCell>
        <mxCell id="MpI8tLXUSHNam6HZPBsy-37" value="" style="html=1;verticalAlign=bottom;endArrow=open;dashed=1;endSize=8;exitX=0.5;exitY=1;exitDx=0;exitDy=0;exitPerimeter=0;entryX=-0.014;entryY=0.9;entryDx=0;entryDy=0;entryPerimeter=0;" edge="1" parent="1">
          <mxGeometry x="0.3444" y="-40" relative="1" as="geometry">
            <mxPoint x="306" y="340" as="sourcePoint" />
            <mxPoint x="193.96000000000004" y="338" as="targetPoint" />
            <mxPoint as="offset" />
          </mxGeometry>
        </mxCell>
        <mxCell id="MpI8tLXUSHNam6HZPBsy-38" value="" style="html=1;verticalAlign=bottom;endArrow=open;dashed=1;endSize=8;exitX=0.5;exitY=1;exitDx=0;exitDy=0;exitPerimeter=0;" edge="1" parent="1" target="MpI8tLXUSHNam6HZPBsy-1">
          <mxGeometry x="0.1784" y="-60" relative="1" as="geometry">
            <mxPoint x="185.5" y="360" as="sourcePoint" />
            <mxPoint x="65" y="360" as="targetPoint" />
            <mxPoint as="offset" />
          </mxGeometry>
        </mxCell>
        <mxCell id="MpI8tLXUSHNam6HZPBsy-39" value="命中缓存" style="text;html=1;align=center;verticalAlign=middle;resizable=0;points=[];autosize=1;" vertex="1" parent="1">
          <mxGeometry x="575.5" y="290" width="60" height="20" as="geometry" />
        </mxCell>
        <mxCell id="MpI8tLXUSHNam6HZPBsy-40" value="create dv success" style="text;html=1;align=center;verticalAlign=middle;resizable=0;points=[];autosize=1;" vertex="1" parent="1">
          <mxGeometry x="195.5" y="320" width="110" height="20" as="geometry" />
        </mxCell>
        <mxCell id="MpI8tLXUSHNam6HZPBsy-41" value="scale vm success" style="text;html=1;align=center;verticalAlign=middle;resizable=0;points=[];autosize=1;" vertex="1" parent="1">
          <mxGeometry x="55" y="340" width="110" height="20" as="geometry" />
        </mxCell>
        <mxCell id="MpI8tLXUSHNam6HZPBsy-42" value="" style="endArrow=classic;html=1;edgeStyle=orthogonalEdgeStyle;entryX=1.1;entryY=0.925;entryDx=0;entryDy=0;entryPerimeter=0;" edge="1" parent="1" target="MpI8tLXUSHNam6HZPBsy-11">
          <mxGeometry width="50" height="50" relative="1" as="geometry">
            <mxPoint x="575.5" y="365" as="sourcePoint" />
            <mxPoint x="576.5" y="410" as="targetPoint" />
            <Array as="points">
              <mxPoint x="600" y="365" />
              <mxPoint x="600" y="397" />
            </Array>
          </mxGeometry>
        </mxCell>
        <mxCell id="MpI8tLXUSHNam6HZPBsy-43" value="GC过期缓存" style="text;html=1;align=center;verticalAlign=middle;resizable=0;points=[];autosize=1;" vertex="1" parent="1">
          <mxGeometry x="600" y="370" width="80" height="20" as="geometry" />
        </mxCell>
      </root>
    </mxGraphModel>
  </diagram>
</mxfile>
